<?xml version="1.0" encoding="utf-8"?>
<!-- Generator: Adobe Illustrator 23.0.0, SVG Export Plug-In . SVG Version: 6.00 Build 0)  -->
<svg version="1.1" id="Capa_1" xmlns="http://www.w3.org/2000/svg" xmlns:xlink="http://www.w3.org/1999/xlink" x="0px" y="0px"
	 viewBox="0 0 656.4 656.4" style="enable-background:new 0 0 656.4 656.4;" xml:space="preserve">
<style type="text/css">
	.st0{fill:#E0D21E;}
</style>
<g>
	<g>
		<path class="st0" d="M388.8,133.5l-17.7-4.9c-2.3-0.8-4.5-0.5-6.7,0.7s-3.7,3.1-4.4,5.6L253.4,503.5c-0.8,2.5-0.5,4.8,0.7,7
			s3.1,3.7,5.6,4.4l17.7,4.9c2.3,0.8,4.5,0.5,6.7-0.7s3.7-3.1,4.4-5.6L395,144.9c0.8-2.5,0.5-4.8-0.7-7
			C393.1,135.7,391.2,134.3,388.8,133.5z"/>
		<path class="st0" d="M229.2,205.5c0-2.5-1-4.7-2.9-6.6L212,184.6c-1.9-1.9-4.1-2.9-6.6-2.9s-4.7,1-6.6,2.9l-133,133
			c-1.9,1.9-2.9,4.1-2.9,6.6s1,4.7,2.9,6.6l133,133c1.9,1.9,4.1,2.9,6.6,2.9s4.7-1,6.6-2.9l14.3-14.3c1.9-1.9,2.9-4.1,2.9-6.6
			s-1-4.7-2.9-6.6L114.1,324.2L226.3,212C228.2,210.1,229.2,207.9,229.2,205.5z"/>
		<path class="st0" d="M582.6,317.7l-133-133c-1.9-1.9-4.1-2.9-6.6-2.9s-4.7,1-6.6,2.9L422.1,199c-1.9,1.9-2.9,4.1-2.9,6.6
			s0.9,4.7,2.9,6.6l112.2,112.2l-112.1,112c-1.9,1.9-2.9,4.1-2.9,6.6s0.9,4.7,2.9,6.6l14.3,14.3c1.9,1.9,4.1,2.9,6.6,2.9
			s4.7-1,6.6-2.9l133-133c1.9-1.9,2.9-4.1,2.9-6.6C585.5,321.8,584.5,319.6,582.6,317.7z"/>
	</g>
</g>
</svg>
