<?xml version="1.0" encoding="utf-8"?>
<!-- Generator: Adobe Illustrator 23.0.0, SVG Export Plug-In . SVG Version: 6.00 Build 0)  -->
<svg version="1.1" id="Capa_1" xmlns="http://www.w3.org/2000/svg" xmlns:xlink="http://www.w3.org/1999/xlink" x="0px" y="0px"
	 viewBox="0 0 776.4 776.4" style="enable-background:new 0 0 776.4 776.4;" xml:space="preserve">
<style type="text/css">
	.st0{fill:#E0D21E;}
</style>
<g>
	<g>
		<path class="st0" d="M619.7,110.3H388.2H156.7c-25.6,0-46.3,20.7-46.3,46.3v231.5v231.5c0,25.6,20.7,46.3,46.3,46.3h231.5h231.5
			c25.6,0,46.3-20.7,46.3-46.3V388.2V156.7C666,131.1,645.3,110.3,619.7,110.3z M128.9,156.7c0-15.3,12.5-27.8,27.8-27.8H379v92.6
			c0,5.1,4.2,9.3,9.3,9.3H401c10.1,0,20.5-2.3,32.6-7.3c5.8-2.3,12.2-2.7,18.4-0.8c9.3,2.7,16.7,10.5,18.8,19.9
			c2,8.7,0.1,17.1-5.3,24c-7.4,9.3-20.5,13-31.5,8.6c-12.9-5-23.7-7.3-34.2-7.3h-11.6c-5.1,0-9.3,4.2-9.3,9.3v101.9h-83.4v-2.3
			c0-8,2-16.7,6.1-27.3c2.1-5.3,3.1-10.9,3.1-16.6c0-14.1-6.4-27.3-17.4-36.2c-11.1-8.8-25.5-12-39.6-8.9
			c-15.9,3.6-29.1,16-33.7,31.7c-3,10.3-2.5,21,1.4,30.6c4.1,9.8,5.9,17.9,5.9,25.6v3.5h-92.6L128.9,156.7L128.9,156.7z
			 M378.9,545.6v101.9H156.7c-15.3,0-27.8-12.5-27.8-27.8V397.5h101.9c5.1,0,9.3-4.2,9.3-9.3v-12.7c0-10.1-2.3-20.5-7.3-32.6
			c-2.3-5.8-2.7-12.2-0.8-18.4c2.7-9.3,10.5-16.7,19.9-18.8c8.7-2,17.1-0.1,24,5.3c6.6,5.3,10.4,13.2,10.4,21.8
			c0,3.4-0.6,6.7-1.9,9.8c-5,12.7-7.3,23.6-7.3,34v11.6c0,5.1,4.2,9.3,9.3,9.3H379v92.6c0,5.1,4.2,9.3,9.3,9.3H401
			c10.1,0,20.5-2.3,32.6-7.3c5.8-2.3,12.2-2.7,18.4-0.8c2.3,0.7,4.5,1.6,6.6,2.9c6.1,3.8,10.7,10,12.3,17c2,8.7,0.1,17.1-5.3,24
			c-7.4,9.3-20.5,13-31.5,8.6c-13-5-23.8-7.3-34.3-7.3h-11.6C383.1,536.4,378.9,540.6,378.9,545.6z M647.5,619.7
			c0,15.3-12.5,27.8-27.8,27.8H397.5v-92.6h2.3c8,0,16.7,2,27.3,6.1c5.3,2.1,10.9,3.1,16.6,3.1c14.1,0,27.3-6.4,36.2-17.5
			c8.9-11.1,12-25.5,8.9-39.6c-3.6-15.9-16-29.1-31.7-33.7c-10.3-3-21-2.5-30.6,1.4c-9.8,4.1-18.1,5.9-25.7,5.9h-3.5v-83.4h101.9
			c5.1,0,9.3-4.2,9.3-9.3v-12.7c0-10.1-2.3-20.5-7.3-32.6c-2.3-5.8-2.7-12-0.8-18.4c2.7-9.3,10.5-16.7,19.9-18.8
			c8.7-2,17.1-0.1,24,5.3c6.6,5.3,10.4,13.2,10.4,21.8c0,3.4-0.6,6.7-1.9,9.8c-4.9,12.9-7.2,23.7-7.2,34.2v11.6
			c0,5.1,4.2,9.3,9.3,9.3h92.6L647.5,619.7L647.5,619.7z M647.5,378.9h-83.4v-2.4c0-8,2-16.7,6.1-27.3c2.1-5.3,3.1-10.9,3.1-16.6
			c0-14.1-6.4-27.3-17.4-36.2c-11.1-8.8-25.5-12-39.6-8.9c-15.9,3.6-29.1,16-33.7,31.7c-3,10.3-2.5,21,1.4,30.6
			c4.1,9.8,5.9,17.9,5.9,25.6v3.5h-92.6v-92.6h2.3c8,0,16.7,2,27.3,6.1c5.3,2.1,10.9,3.1,16.6,3.1c14.1,0,27.3-6.4,36.2-17.5
			c8.8-11.1,12-25.5,8.9-39.6c-3.6-15.9-16-29.1-31.7-33.7c-10.3-3-21-2.5-30.6,1.4c-9.8,4.1-18.1,5.9-25.6,5.9h-3.5v-83.1h222.3
			c15.3,0,27.8,12.5,27.8,27.8v222.2H647.5z"/>
	</g>
</g>
</svg>
