<?xml version="1.0" encoding="utf-8"?>
<!-- Generator: Adobe Illustrator 23.0.0, SVG Export Plug-In . SVG Version: 6.00 Build 0)  -->
<svg version="1.1" id="Layer_1" xmlns="http://www.w3.org/2000/svg" xmlns:xlink="http://www.w3.org/1999/xlink" x="0px" y="0px"
	 viewBox="0 0 651.8 657" style="enable-background:new 0 0 651.8 657;" xml:space="preserve">
<style type="text/css">
	.st0{fill:#E0D21E;}
</style>
<g>
	<g>
		<path class="st0" d="M318.1,145.3c-80.3,0-138.2,59.8-147.4,124.1c-5.7,42.8,8.1,84.6,36.9,116.2c25.3,27,39.2,63.2,39.2,100.4
			l-0.1,58.6c0,23.7,19.6,42.8,43.8,42.8H347c24.2,0,43.8-19.1,43.8-42.8l0.1-58.6c0-38.3,12.7-73.3,36.9-98.1
			c26.5-27,40.3-62,40.3-98.1C467.9,209.6,399.9,145.3,318.1,145.3L318.1,145.3z M368.7,544.6c0,11.2-9.2,20.3-20.8,20.3h-56.5
			c-11.6,0-20.8-9-20.8-20.3v-26h97.9v26H368.7z M411.6,372c-28.8,29.3-43.8,69.9-43.8,113.9v10.2h-97.9v-10.2
			c0-41.8-17.3-83.4-46.1-115c-25.3-27-35.7-62-31.2-98.1c8.1-54.1,58.4-104.9,125.6-104.9c70.3,0,126.8,55.3,126.8,121.8
			C445,320.1,433.4,349.4,411.6,372z"/>
		<rect x="306.5" y="57.4" class="st0" width="23" height="54.1"/>
		<polygon class="st0" points="457.8,161.7 473.9,177.8 513.4,139.8 497.1,123.7 		"/>
		<rect x="526.7" y="301" class="st0" width="56.5" height="22.6"/>
		<rect x="53.1" y="301" class="st0" width="56.5" height="22.6"/>
		<polygon class="st0" points="138.7,123.6 122.4,139.7 161.9,177.7 178,161.6 		"/>
	</g>
</g>
</svg>
