<?xml version="1.0" encoding="utf-8"?>
<!-- Generator: Adobe Illustrator 23.0.0, SVG Export Plug-In . SVG Version: 6.00 Build 0)  -->
<svg version="1.1" id="Layer_1" xmlns="http://www.w3.org/2000/svg" xmlns:xlink="http://www.w3.org/1999/xlink" x="0px" y="0px"
	 viewBox="0 0 760.2 760.2" style="enable-background:new 0 0 760.2 760.2;" xml:space="preserve">
<style type="text/css">
	.st0{fill:#E0D21E;}
</style>
<g>
	<g>
		<path class="st0" d="M655.4,118.6c-16.3-16.3-48.8-7-102.5,29.2c-45.7,30.7-100.3,77.2-154.1,130.9
			c-79.6,79.7-140.2,158-160.4,206.3c-3.3-1.2-6.7-2.2-10.3-2.9c-20.9-4.1-43.6,1.1-62.2,14.5c-26.8,19.1-33.8,46.5-34.8,51
			c-5.6,21-16.3,41.1-30.9,58.1c-4.6,5.4-4.2,13.6,1.2,18.5c18.7,16.8,42.7,25.2,67.6,25.2c24,0,48.9-7.9,70.9-23.4
			c10.3-7.3,18.1-15.5,19.6-17.1c18.7-20,26.5-46.3,22.7-70.3c47.4-17,130.1-79.9,213.3-163.1c53.8-53.8,100.3-108.5,130.9-154.1
			C662.4,167.5,671.7,134.8,655.4,118.6z M240,590.7c-0.7,0.8-7.2,7.6-15.6,13.6c-30.6,21.9-68.2,24.4-95.4,7.5
			c12.7-17.5,22.2-37.3,27.8-57.8l0,0c0.1-0.2,0.1-0.4,0.1-0.7s4.6-21.1,24.4-35.3c12.7-9.1,28-12.7,41.7-10.1
			c11.4,2.2,20.9,8.7,26.9,18.2C261.5,544.9,257.4,572,240,590.7z M273,513.6c-0.2-0.4-4.3-8.6-11.7-14.6
			c6.4-17.3,20.2-40.5,39.6-67.1l41.5,41.5C313.1,494.2,289.2,507.9,273,513.6z M363.7,457.2l-46.8-46.8
			c8.1-10.4,16.8-21.2,26.1-32.2l52.9,52.9C384.7,440.5,374,449.3,363.7,457.2z M600.4,212.4c-29.8,43-73.7,94.2-123.6,144.2
			c-21,21-41.4,40-60.6,57.2l-55.6-55.6c17.6-19.9,36.8-40.4,57.2-60.7c50-50,101.2-93.9,144.2-123.6c53-36.7,71.2-36.7,74.8-36.3
			C637.1,141,637,159.4,600.4,212.4z"/>
	</g>
</g>
<g>
	<g>
		<path class="st0" d="M228.9,555c-6.4-3.5-14.5-1.2-17.9,5.2c-0.3,0.7-0.8,1.2-1.3,1.8c-1,1-4.2,4.2-7.6,6.6
			c-5.1,3.6-10.6,6.3-16.5,7.7c-7.1,1.9-11.3,9.1-9.4,16.1c1.5,6,6.9,9.8,12.8,9.8c1.1,0,2.2-0.1,3.3-0.4
			c8.8-2.3,17.4-6.3,25.1-11.8c5-3.5,11.6-10.1,11.6-10.1c2-2.1,3.6-4.5,5.1-7.1C237.5,566.6,235.2,558.5,228.9,555z"/>
	</g>
</g>
</svg>
